<?xml version="1.0" encoding="UTF-8"?>
<svg xmlns="http://www.w3.org/2000/svg" viewBox="0 0 800 600">
  <!-- Gradient definitions -->
  <defs>
    <linearGradient id="bambooGreen" x1="0%" y1="0%" x2="100%" y2="100%">
      <stop offset="0%" style="stop-color:#388E3C;stop-opacity:1" />
      <stop offset="100%" style="stop-color:#4CAF50;stop-opacity:1" />
    </linearGradient>
    <linearGradient id="leafGradient" x1="0%" y1="0%" x2="100%" y2="100%">
      <stop offset="0%" style="stop-color:#66BB6A;stop-opacity:0.9" />
      <stop offset="100%" style="stop-color:#388E3C;stop-opacity:0.9" />
    </linearGradient>
    <filter id="blur" x="-50%" y="-50%" width="200%" height="200%">
      <feGaussianBlur in="SourceGraphic" stdDeviation="3" />
    </filter>
  </defs>

  <!-- Large Bamboo Group 1 -->
  <g opacity="0.3">
    <!-- Main stalk -->
    <rect x="50" y="0" width="25" height="600" fill="url(#bambooGreen)" />
    
    <!-- Nodes -->
    <ellipse cx="62.5" cy="50" rx="16" ry="4" fill="#388E3C" />
    <ellipse cx="62.5" cy="120" rx="16" ry="4" fill="#388E3C" />
    <ellipse cx="62.5" cy="190" rx="16" ry="4" fill="#388E3C" />
    <ellipse cx="62.5" cy="260" rx="16" ry="4" fill="#388E3C" />
    <ellipse cx="62.5" cy="330" rx="16" ry="4" fill="#388E3C" />
    <ellipse cx="62.5" cy="400" rx="16" ry="4" fill="#388E3C" />
    <ellipse cx="62.5" cy="470" rx="16" ry="4" fill="#388E3C" />
    <ellipse cx="62.5" cy="540" rx="16" ry="4" fill="#388E3C" />
    
    <!-- Leaves -->
    <path d="M75 40C120 20 140 30 130 50C120 65 90 65 75 40Z" fill="url(#leafGradient)" />
    <path d="M75 110C120 90 140 100 130 120C120 135 90 135 75 110Z" fill="url(#leafGradient)" />
    <path d="M75 180C120 160 140 170 130 190C120 205 90 205 75 180Z" fill="url(#leafGradient)" />
    <path d="M75 250C120 230 140 240 130 260C120 275 90 275 75 250Z" fill="url(#leafGradient)" />
    <path d="M75 320C120 300 140 310 130 330C120 345 90 345 75 320Z" fill="url(#leafGradient)" />
    <path d="M75 390C120 370 140 380 130 400C120 415 90 415 75 390Z" fill="url(#leafGradient)" />
    
    <path d="M50 80C0 60 -20 70 -10 90C0 105 30 105 50 80Z" fill="url(#leafGradient)" />
    <path d="M50 150C0 130 -20 140 -10 160C0 175 30 175 50 150Z" fill="url(#leafGradient)" />
    <path d="M50 220C0 200 -20 210 -10 230C0 245 30 245 50 220Z" fill="url(#leafGradient)" />
    <path d="M50 290C0 270 -20 280 -10 300C0 315 30 315 50 290Z" fill="url(#leafGradient)" />
    <path d="M50 360C0 340 -20 350 -10 370C0 385 30 385 50 360Z" fill="url(#leafGradient)" />
    <path d="M50 430C0 410 -20 420 -10 440C0 455 30 455 50 430Z" fill="url(#leafGradient)" />
  </g>

  <!-- Large Bamboo Group 2 -->
  <g opacity="0.3">
    <!-- Main stalk -->
    <rect x="150" y="50" width="20" height="550" fill="url(#bambooGreen)" />
    
    <!-- Nodes -->
    <ellipse cx="160" cy="90" rx="14" ry="3.5" fill="#388E3C" />
    <ellipse cx="160" cy="160" rx="14" ry="3.5" fill="#388E3C" />
    <ellipse cx="160" cy="230" rx="14" ry="3.5" fill="#388E3C" />
    <ellipse cx="160" cy="300" rx="14" ry="3.5" fill="#388E3C" />
    <ellipse cx="160" cy="370" rx="14" ry="3.5" fill="#388E3C" />
    <ellipse cx="160" cy="440" rx="14" ry="3.5" fill="#388E3C" />
    <ellipse cx="160" cy="510" rx="14" ry="3.5" fill="#388E3C" />
    <ellipse cx="160" cy="580" rx="14" ry="3.5" fill="#388E3C" />
    
    <!-- Leaves -->
    <path d="M170 80C210 60 230 70 220 90C210 105 185 105 170 80Z" fill="url(#leafGradient)" />
    <path d="M170 150C210 130 230 140 220 160C210 175 185 175 170 150Z" fill="url(#leafGradient)" />
    <path d="M170 220C210 200 230 210 220 230C210 245 185 245 170 220Z" fill="url(#leafGradient)" />
    <path d="M170 290C210 270 230 280 220 300C210 315 185 315 170 290Z" fill="url(#leafGradient)" />
    <path d="M170 360C210 340 230 350 220 370C210 385 185 385 170 360Z" fill="url(#leafGradient)" />
    
    <path d="M150 120C110 100 90 110 100 130C110 145 135 145 150 120Z" fill="url(#leafGradient)" />
    <path d="M150 190C110 170 90 180 100 200C110 215 135 215 150 190Z" fill="url(#leafGradient)" />
    <path d="M150 260C110 240 90 250 100 270C110 285 135 285 150 260Z" fill="url(#leafGradient)" />
    <path d="M150 330C110 310 90 320 100 340C110 355 135 355 150 330Z" fill="url(#leafGradient)" />
    <path d="M150 400C110 380 90 390 100 410C110 425 135 425 150 400Z" fill="url(#leafGradient)" />
  </g>

  <!-- Large Bamboo Group 3 (right side) -->
  <g opacity="0.3">
    <!-- Main stalk -->
    <rect x="700" y="30" width="22" height="570" fill="url(#bambooGreen)" />
    
    <!-- Nodes -->
    <ellipse cx="711" cy="70" rx="15" ry="3.8" fill="#388E3C" />
    <ellipse cx="711" cy="140" rx="15" ry="3.8" fill="#388E3C" />
    <ellipse cx="711" cy="210" rx="15" ry="3.8" fill="#388E3C" />
    <ellipse cx="711" cy="280" rx="15" ry="3.8" fill="#388E3C" />
    <ellipse cx="711" cy="350" rx="15" ry="3.8" fill="#388E3C" />
    <ellipse cx="711" cy="420" rx="15" ry="3.8" fill="#388E3C" />
    <ellipse cx="711" cy="490" rx="15" ry="3.8" fill="#388E3C" />
    <ellipse cx="711" cy="560" rx="15" ry="3.8" fill="#388E3C" />
    
    <!-- Leaves -->
    <path d="M700 60C660 40 640 50 650 70C660 85 685 85 700 60Z" fill="url(#leafGradient)" />
    <path d="M700 130C660 110 640 120 650 140C660 155 685 155 700 130Z" fill="url(#leafGradient)" />
    <path d="M700 200C660 180 640 190 650 210C660 225 685 225 700 200Z" fill="url(#leafGradient)" />
    <path d="M700 270C660 250 640 260 650 280C660 295 685 295 700 270Z" fill="url(#leafGradient)" />
    <path d="M700 340C660 320 640 330 650 350C660 365 685 365 700 340Z" fill="url(#leafGradient)" />
    
    <path d="M722 100C762 80 782 90 772 110C762 125 737 125 722 100Z" fill="url(#leafGradient)" />
    <path d="M722 170C762 150 782 160 772 180C762 195 737 195 722 170Z" fill="url(#leafGradient)" />
    <path d="M722 240C762 220 782 230 772 250C762 265 737 265 722 240Z" fill="url(#leafGradient)" />
    <path d="M722 310C762 290 782 300 772 320C762 335 737 335 722 310Z" fill="url(#leafGradient)" />
    <path d="M722 380C762 360 782 370 772 390C762 405 737 405 722 380Z" fill="url(#leafGradient)" />
  </g>

  <!-- Large Bamboo Group 4 (right side) -->
  <g opacity="0.3">
    <!-- Main stalk -->
    <rect x="620" y="20" width="18" height="580" fill="url(#bambooGreen)" />
    
    <!-- Nodes -->
    <ellipse cx="629" cy="60" rx="12" ry="3" fill="#388E3C" />
    <ellipse cx="629" cy="130" rx="12" ry="3" fill="#388E3C" />
    <ellipse cx="629" cy="200" rx="12" ry="3" fill="#388E3C" />
    <ellipse cx="629" cy="270" rx="12" ry="3" fill="#388E3C" />
    <ellipse cx="629" cy="340" rx="12" ry="3" fill="#388E3C" />
    <ellipse cx="629" cy="410" rx="12" ry="3" fill="#388E3C" />
    <ellipse cx="629" cy="480" rx="12" ry="3" fill="#388E3C" />
    <ellipse cx="629" cy="550" rx="12" ry="3" fill="#388E3C" />
    
    <!-- Leaves -->
    <path d="M638 50C678 30 698 40 688 60C678 75 653 75 638 50Z" fill="url(#leafGradient)" />
    <path d="M638 120C678 100 698 110 688 130C678 145 653 145 638 120Z" fill="url(#leafGradient)" />
    <path d="M638 190C678 170 698 180 688 200C678 215 653 215 638 190Z" fill="url(#leafGradient)" />
    <path d="M638 260C678 240 698 250 688 270C678 285 653 285 638 260Z" fill="url(#leafGradient)" />
    <path d="M638 330C678 310 698 320 688 340C678 355 653 355 638 330Z" fill="url(#leafGradient)" />
    
    <path d="M620 90C580 70 560 80 570 100C580 115 605 115 620 90Z" fill="url(#leafGradient)" />
    <path d="M620 160C580 140 560 150 570 170C580 185 605 185 620 160Z" fill="url(#leafGradient)" />
    <path d="M620 230C580 210 560 220 570 240C580 255 605 255 620 230Z" fill="url(#leafGradient)" />
    <path d="M620 300C580 280 560 290 570 310C580 325 605 325 620 300Z" fill="url(#leafGradient)" />
    <path d="M620 370C580 350 560 360 570 380C580 395 605 395 620 370Z" fill="url(#leafGradient)" />
  </g>
</svg>