<?xml version="1.0" encoding="UTF-8"?>
<svg xmlns="http://www.w3.org/2000/svg" viewBox="0 0 512 512">
  <defs>
    <radialGradient id="eyeShine" cx="0.3" cy="0.3" r="0.2">
      <stop offset="0%" stop-color="white" stop-opacity="1"/>
      <stop offset="100%" stop-color="white" stop-opacity="0"/>
    </radialGradient>
    <filter id="furTexture" x="-50%" y="-50%" width="200%" height="200%">
      <feTurbulence type="fractalNoise" baseFrequency="0.05" numOctaves="2" result="noise"/>
      <feDisplacementMap in="SourceGraphic" in2="noise" scale="5" xChannelSelector="R" yChannelSelector="G"/>
    </filter>
  </defs>
  
  <!-- White body base -->
  <ellipse cx="256" cy="280" rx="200" ry="190" fill="white" filter="url(#furTexture)"/>
  
  <!-- Black ear shadows -->
  <ellipse cx="138" cy="125" rx="55" ry="55" fill="#333" filter="url(#furTexture)"/>
  <ellipse cx="374" cy="125" rx="55" ry="55" fill="#333" filter="url(#furTexture)"/>
  
  <!-- Black ears -->
  <ellipse cx="140" cy="120" rx="50" ry="50" fill="black" filter="url(#furTexture)"/>
  <ellipse cx="372" cy="120" rx="50" ry="50" fill="black" filter="url(#furTexture)"/>
  
  <!-- Eye patch shadows -->
  <ellipse cx="180" cy="225" rx="60" ry="70" fill="#333" filter="url(#furTexture)"/>
  <ellipse cx="332" cy="225" rx="60" ry="70" fill="#333" filter="url(#furTexture)"/>
  
  <!-- Black eye patches -->
  <ellipse cx="180" cy="220" rx="55" ry="65" fill="black" filter="url(#furTexture)"/>
  <ellipse cx="332" cy="220" rx="55" ry="65" fill="black" filter="url(#furTexture)"/>
  
  <!-- Eyeballs -->
  <ellipse cx="180" cy="210" rx="20" ry="20" fill="white"/>
  <ellipse cx="332" cy="210" rx="20" ry="20" fill="white"/>
  
  <!-- Pupils -->
  <ellipse cx="180" cy="210" rx="10" ry="12" fill="#111"/>
  <ellipse cx="332" cy="210" rx="10" ry="12" fill="#111"/>
  
  <!-- Eye shine -->
  <ellipse cx="176" cy="206" rx="6" ry="6" fill="url(#eyeShine)"/>
  <ellipse cx="328" cy="206" rx="6" ry="6" fill="url(#eyeShine)"/>
  
  <!-- Nose shadow -->
  <ellipse cx="257" cy="272" rx="28" ry="20" fill="#333"/>
  
  <!-- Nose -->
  <ellipse cx="256" cy="270" rx="25" ry="18" fill="black"/>
  
  <!-- Mouth -->
  <path d="M256 290 C256 320 226 340 206 340" stroke="black" stroke-width="5" fill="none"/>
  <path d="M256 290 C256 320 286 340 306 340" stroke="black" stroke-width="5" fill="none"/>
  
  <!-- Whiskers -->
  <line x1="215" y1="265" x2="165" y2="255" stroke="black" stroke-width="2"/>
  <line x1="215" y1="275" x2="160" y2="275" stroke="black" stroke-width="2"/>
  <line x1="215" y1="285" x2="165" y2="295" stroke="black" stroke-width="2"/>
  
  <line x1="297" y1="265" x2="347" y2="255" stroke="black" stroke-width="2"/>
  <line x1="297" y1="275" x2="352" y2="275" stroke="black" stroke-width="2"/>
  <line x1="297" y1="285" x2="347" y2="295" stroke="black" stroke-width="2"/>
  
  <!-- Front paws -->
  <ellipse cx="190" cy="380" rx="35" ry="30" fill="#333" filter="url(#furTexture)"/>
  <ellipse cx="322" cy="380" rx="35" ry="30" fill="#333" filter="url(#furTexture)"/>
  <ellipse cx="190" cy="378" rx="32" ry="28" fill="black" filter="url(#furTexture)"/>
  <ellipse cx="322" cy="378" rx="32" ry="28" fill="black" filter="url(#furTexture)"/>
  
  <!-- Bamboo stalk (held by panda) -->
  <rect x="210" y="370" width="15" height="100" fill="#4CAF50"/>
  <rect x="240" y="360" width="15" height="120" fill="#4CAF50"/>
  <rect x="270" y="380" width="15" height="90" fill="#4CAF50"/>
  
  <!-- Bamboo nodes -->
  <ellipse cx="217.5" cy="400" rx="10" ry="3" fill="#388E3C"/>
  <ellipse cx="217.5" cy="440" rx="10" ry="3" fill="#388E3C"/>
  
  <ellipse cx="247.5" cy="380" rx="10" ry="3" fill="#388E3C"/>
  <ellipse cx="247.5" cy="420" rx="10" ry="3" fill="#388E3C"/>
  <ellipse cx="247.5" cy="460" rx="10" ry="3" fill="#388E3C"/>
  
  <ellipse cx="277.5" cy="410" rx="10" ry="3" fill="#388E3C"/>
  <ellipse cx="277.5" cy="450" rx="10" ry="3" fill="#388E3C"/>
  
  <!-- Bamboo leaves -->
  <path d="M225 390C245 380 260 385 250 400C240 410 220 405 225 390Z" fill="#66BB6A"/>
  <path d="M254 375C274 365 289 370 279 385C269 395 249 390 254 375Z" fill="#66BB6A"/>
  <path d="M284 400C304 390 319 395 309 410C299 420 279 415 284 400Z" fill="#66BB6A"/>
</svg>